<svg xmlns="http://www.w3.org/2000/svg" xmlns:xlink="http://www.w3.org/1999/xlink" width="500" zoomAndPan="magnify" viewBox="0 0 375 374.999991" height="500" preserveAspectRatio="xMidYMid meet" version="1.0"><defs><g/><clipPath id="c1b26dacea"><path d="M 60.582031 129.75 L 121 129.75 L 121 191 L 60.582031 191 Z M 60.582031 129.75 " clip-rule="nonzero"/></clipPath><clipPath id="a1091efdca"><path d="M 253 184 L 314.082031 184 L 314.082031 245.25 L 253 245.25 Z M 253 184 " clip-rule="nonzero"/></clipPath></defs><g clip-path="url(#c1b26dacea)"><path fill="#233dff" d="M 63.074219 190.308594 L 60.582031 190.308594 L 60.582031 129.808594 L 120.996094 129.808594 L 120.996094 132.300781 L 63.074219 132.300781 Z M 63.074219 190.308594 " fill-opacity="1" fill-rule="nonzero"/></g><g clip-path="url(#a1091efdca)"><path fill="#233dff" d="M 314.082031 245.195312 L 253.664062 245.195312 L 253.664062 242.699219 L 311.589844 242.699219 L 311.589844 184.695312 L 314.082031 184.695312 Z M 314.082031 245.195312 " fill-opacity="1" fill-rule="nonzero"/></g><g fill="#000000" fill-opacity="1"><g transform="translate(85.065216, 180.749988)"><g><path d="M 13.421875 -14.375 L 7.796875 -14.375 L 7.796875 0 L 5.96875 0 L 5.96875 -14.375 L 0.34375 -14.375 L 0.34375 -16.125 L 13.421875 -16.125 Z M 13.421875 -14.375 "/></g></g></g><g fill="#000000" fill-opacity="1"><g transform="translate(101.502994, 180.749988)"><g><path d="M 15 -16.125 L 15 0 L 13.171875 0 L 13.171875 -7.1875 L 3.796875 -7.1875 L 3.796875 0 L 1.96875 0 L 1.96875 -16.125 L 3.796875 -16.125 L 3.796875 -8.96875 L 13.171875 -8.96875 L 13.171875 -16.125 Z M 15 -16.125 "/></g></g></g><g fill="#000000" fill-opacity="1"><g transform="translate(121.155187, 180.749988)"><g><path d="M 3.796875 -14.375 L 3.796875 -8.96875 L 12.765625 -8.96875 L 12.765625 -7.1875 L 3.796875 -7.1875 L 3.796875 -1.75 L 13.84375 -1.75 L 13.84375 0 L 1.96875 0 L 1.96875 -16.125 L 13.84375 -16.125 L 13.84375 -14.375 Z M 3.796875 -14.375 "/></g></g></g><g fill="#000000" fill-opacity="1"><g transform="translate(138.640088, 180.749988)"><g><path d="M 15.875 -16.125 L 15.875 0 L 13.765625 0 L 3.796875 -13.609375 L 3.796875 0 L 1.96875 0 L 1.96875 -16.125 L 4.09375 -16.125 L 14.0625 -2.5625 L 14.0625 -16.125 Z M 15.875 -16.125 "/></g></g></g><g fill="#000000" fill-opacity="1"><g transform="translate(159.168933, 180.749988)"><g><path d="M 13.421875 -14.375 L 7.796875 -14.375 L 7.796875 0 L 5.96875 0 L 5.96875 -14.375 L 0.34375 -14.375 L 0.34375 -16.125 L 13.421875 -16.125 Z M 13.421875 -14.375 "/></g></g></g><g fill="#000000" fill-opacity="1"><g transform="translate(175.606711, 180.749988)"><g><path d="M 3.796875 -14.375 L 3.796875 -8.96875 L 12.765625 -8.96875 L 12.765625 -7.1875 L 3.796875 -7.1875 L 3.796875 -1.75 L 13.84375 -1.75 L 13.84375 0 L 1.96875 0 L 1.96875 -16.125 L 13.84375 -16.125 L 13.84375 -14.375 Z M 3.796875 -14.375 "/></g></g></g><g fill="#000000" fill-opacity="1"><g transform="translate(193.091611, 180.749988)"><g><path d="M 3.796875 0 L 1.96875 0 L 1.96875 -16.125 L 9.6875 -16.125 C 11.332031 -16.125 12.648438 -15.671875 13.640625 -14.765625 C 14.628906 -13.867188 15.125 -12.640625 15.125 -11.078125 C 15.125 -9.066406 14.289062 -7.695312 12.625 -6.96875 C 12.144531 -6.757812 11.679688 -6.601562 11.234375 -6.5 L 15.46875 0 L 13.296875 0 L 9.40625 -6.1875 L 3.796875 -6.1875 Z M 3.796875 -7.921875 L 9.375 -7.921875 C 11.09375 -7.921875 12.28125 -8.457031 12.9375 -9.53125 C 13.175781 -9.9375 13.296875 -10.453125 13.296875 -11.078125 C 13.296875 -12.109375 12.945312 -12.914062 12.25 -13.5 C 11.550781 -14.09375 10.625 -14.390625 9.46875 -14.390625 L 3.796875 -14.390625 Z M 3.796875 -7.921875 "/></g></g></g><g fill="#000000" fill-opacity="1"><g transform="translate(212.061955, 180.749988)"><g><path d="M 3.796875 0 L 1.96875 0 L 1.96875 -16.125 L 9.234375 -16.125 C 10.941406 -16.125 12.296875 -15.65625 13.296875 -14.71875 C 14.285156 -13.769531 14.78125 -12.507812 14.78125 -10.9375 C 14.78125 -9.34375 14.28125 -8.078125 13.28125 -7.140625 C 12.289062 -6.210938 10.941406 -5.75 9.234375 -5.75 L 3.796875 -5.75 Z M 3.796875 -14.390625 L 3.796875 -7.453125 L 9.109375 -7.453125 C 10.378906 -7.453125 11.335938 -7.757812 11.984375 -8.375 C 12.628906 -9 12.953125 -9.847656 12.953125 -10.921875 C 12.953125 -12.003906 12.628906 -12.851562 11.984375 -13.46875 C 11.335938 -14.082031 10.378906 -14.390625 9.109375 -14.390625 Z M 3.796875 -14.390625 "/></g></g></g><g fill="#000000" fill-opacity="1"><g transform="translate(230.033892, 180.749988)"><g><path d="M 3.796875 0 L 1.96875 0 L 1.96875 -16.125 L 9.6875 -16.125 C 11.332031 -16.125 12.648438 -15.671875 13.640625 -14.765625 C 14.628906 -13.867188 15.125 -12.640625 15.125 -11.078125 C 15.125 -9.066406 14.289062 -7.695312 12.625 -6.96875 C 12.144531 -6.757812 11.679688 -6.601562 11.234375 -6.5 L 15.46875 0 L 13.296875 0 L 9.40625 -6.1875 L 3.796875 -6.1875 Z M 3.796875 -7.921875 L 9.375 -7.921875 C 11.09375 -7.921875 12.28125 -8.457031 12.9375 -9.53125 C 13.175781 -9.9375 13.296875 -10.453125 13.296875 -11.078125 C 13.296875 -12.109375 12.945312 -12.914062 12.25 -13.5 C 11.550781 -14.09375 10.625 -14.390625 9.46875 -14.390625 L 3.796875 -14.390625 Z M 3.796875 -7.921875 "/></g></g></g><g fill="#000000" fill-opacity="1"><g transform="translate(249.004236, 180.749988)"><g><path d="M 3.796875 0 L 1.96875 0 L 1.96875 -16.125 L 3.796875 -16.125 Z M 3.796875 0 "/></g></g></g><g fill="#000000" fill-opacity="1"><g transform="translate(257.45469, 180.749988)"><g><path d="M 3.8125 -13.65625 C 3.507812 -13.382812 3.304688 -13.085938 3.203125 -12.765625 C 3.097656 -12.441406 3.046875 -12.097656 3.046875 -11.734375 C 3.046875 -11.367188 3.203125 -11.03125 3.515625 -10.71875 C 3.835938 -10.40625 4.253906 -10.144531 4.765625 -9.9375 C 5.285156 -9.726562 5.878906 -9.539062 6.546875 -9.375 C 7.210938 -9.21875 7.890625 -9.050781 8.578125 -8.875 C 9.273438 -8.707031 9.957031 -8.515625 10.625 -8.296875 C 11.289062 -8.078125 11.882812 -7.796875 12.40625 -7.453125 C 13.550781 -6.722656 14.125 -5.722656 14.125 -4.453125 C 14.125 -2.941406 13.5625 -1.789062 12.4375 -1 C 11.3125 -0.207031 9.75 0.1875 7.75 0.1875 C 5.488281 0.1875 3.765625 -0.28125 2.578125 -1.21875 C 1.523438 -2.0625 0.925781 -3.265625 0.78125 -4.828125 L 2.671875 -4.828125 C 2.742188 -3.722656 3.28125 -2.878906 4.28125 -2.296875 C 5.164062 -1.785156 6.328125 -1.53125 7.765625 -1.53125 C 10.785156 -1.53125 12.296875 -2.484375 12.296875 -4.390625 C 12.296875 -5.035156 12.023438 -5.546875 11.484375 -5.921875 C 10.941406 -6.296875 10.257812 -6.601562 9.4375 -6.84375 C 8.613281 -7.082031 7.726562 -7.304688 6.78125 -7.515625 C 5.832031 -7.734375 4.945312 -8.007812 4.125 -8.34375 C 3.3125 -8.675781 2.628906 -9.113281 2.078125 -9.65625 C 1.535156 -10.195312 1.265625 -10.929688 1.265625 -11.859375 C 1.265625 -13.179688 1.765625 -14.253906 2.765625 -15.078125 C 3.773438 -15.910156 5.296875 -16.328125 7.328125 -16.328125 C 9.378906 -16.328125 10.960938 -15.851562 12.078125 -14.90625 C 13.097656 -14.082031 13.644531 -13.019531 13.71875 -11.71875 L 11.84375 -11.71875 C 11.675781 -13.050781 10.8125 -13.9375 9.25 -14.375 C 8.695312 -14.53125 8.007812 -14.609375 7.1875 -14.609375 C 6.375 -14.609375 5.6875 -14.515625 5.125 -14.328125 C 4.5625 -14.148438 4.125 -13.925781 3.8125 -13.65625 Z M 3.8125 -13.65625 "/></g></g></g><g fill="#000000" fill-opacity="1"><g transform="translate(275.11005, 180.749988)"><g><path d="M 3.796875 -14.375 L 3.796875 -8.96875 L 12.765625 -8.96875 L 12.765625 -7.1875 L 3.796875 -7.1875 L 3.796875 -1.75 L 13.84375 -1.75 L 13.84375 0 L 1.96875 0 L 1.96875 -16.125 L 13.84375 -16.125 L 13.84375 -14.375 Z M 3.796875 -14.375 "/></g></g></g><g fill="#233dff" fill-opacity="1"><g transform="translate(151.076931, 209.249986)"><g><path d="M 3.796875 -14.375 L 3.796875 -8.96875 L 12.765625 -8.96875 L 12.765625 -7.1875 L 3.796875 -7.1875 L 3.796875 -1.75 L 13.84375 -1.75 L 13.84375 0 L 1.96875 0 L 1.96875 -16.125 L 13.84375 -16.125 L 13.84375 -14.375 Z M 3.796875 -14.375 "/></g></g></g><g fill="#233dff" fill-opacity="1"><g transform="translate(168.561831, 209.249986)"><g><path d="M 3.796875 -16.125 L 3.796875 -1.75 L 12.59375 -1.75 L 12.59375 0 L 1.96875 0 L 1.96875 -16.125 Z M 3.796875 -16.125 "/></g></g></g><g fill="#233dff" fill-opacity="1"><g transform="translate(184.220357, 209.249986)"><g><path d="M 3.796875 0 L 1.96875 0 L 1.96875 -16.125 L 3.796875 -16.125 Z M 3.796875 0 "/></g></g></g><g fill="#233dff" fill-opacity="1"><g transform="translate(192.670811, 209.249986)"><g><path d="M 13.421875 -14.375 L 7.796875 -14.375 L 7.796875 0 L 5.96875 0 L 5.96875 -14.375 L 0.34375 -14.375 L 0.34375 -16.125 L 13.421875 -16.125 Z M 13.421875 -14.375 "/></g></g></g><g fill="#233dff" fill-opacity="1"><g transform="translate(209.108588, 209.249986)"><g><path d="M 3.796875 -14.375 L 3.796875 -8.96875 L 12.765625 -8.96875 L 12.765625 -7.1875 L 3.796875 -7.1875 L 3.796875 -1.75 L 13.84375 -1.75 L 13.84375 0 L 1.96875 0 L 1.96875 -16.125 L 13.84375 -16.125 L 13.84375 -14.375 Z M 3.796875 -14.375 "/></g></g></g></svg>