<svg class="border shadow-md" viewBox="0 0 1400.08 1400.08" style="width: 1400.08px; height: 1400.08px;" xmlns="http://www.w3.org/2000/svg" preserveAspectRatio="none"><rect class="bg" id="bg" x="0" y="0" width="1400.08" height="1400.08" fill="#ffffff"/><defs><filter id="f1" x="-200%" y="-200%" width="500%" height="500%"><feGaussianBlur stdDeviation="25"/></filter></defs><g transform="translate(-580.0387438900427 -277.7486796013054) rotate(22 409.96731831361865 217.25435150052527 )"><rect x="8" y="8" opacity="0.4" width="5940.0363732219685" height="990.0060622036614" fill="#87CEEB" filter="url(#f1)"/><rect x="-8" y="-8" opacity="0.4" width="5940.0363732219685" height="990.0060622036614" fill="#8ed1ec" filter="url(#f1)"/><rect x="0" y="0" width="5940.0363732219685" height="990.0060622036614" fill="#87CEEB"/></g><g transform="translate(-853.1227340261694 264.88130377299865) rotate(10 136.883328177492 759.8843348748294 )"><rect x="8" y="8" opacity="0.4" width="5940.0363732219685" height="990.0060622036614" fill="#9cd7ee" filter="url(#f1)"/><rect x="-8" y="-8" opacity="0.4" width="5940.0363732219685" height="990.0060622036614" fill="#a3daef" filter="url(#f1)"/><rect x="0" y="0" width="5940.0363732219685" height="990.0060622036614" fill="#FFFFFF"/></g><g transform="translate(-1447.6330212600697 389.69990374323845) rotate(24 -457.6269590564084 884.7029348450692 )"><rect x="8" y="8" opacity="0.4" width="5940.0363732219685" height="990.0060622036614" fill="#b1e0f1" filter="url(#f1)"/><rect x="-8" y="-8" opacity="0.4" width="5940.0363732219685" height="990.0060622036614" fill="#b8e3f2" filter="url(#f1)"/><rect x="0" y="0" width="5940.0363732219685" height="990.0060622036614" fill="#bfe6f3"/></g><g transform="translate(-1915.8912335048296 2.716168696393538) rotate(8 -925.8851713011683 497.7191997982242 )"><rect x="8" y="8" opacity="0.4" width="5940.0363732219685" height="990.0060622036614" fill="#c6e9f4" filter="url(#f1)"/><rect x="-8" y="-8" opacity="0.4" width="5940.0363732219685" height="990.0060622036614" fill="#cdecf5" filter="url(#f1)"/><rect x="0" y="0" width="5940.0363732219685" height="990.0060622036614" fill="#d4eff6"/></g><g transform="translate(-1905.2893862133496 -604.663255847667) rotate(4 -915.2833240096883 -109.66022474583622 )"><rect x="8" y="8" opacity="0.4" width="5940.0363732219685" height="990.0060622036614" fill="#dbf2f7" filter="url(#f1)"/><rect x="-8" y="-8" opacity="0.4" width="5940.0363732219685" height="990.0060622036614" fill="#e2f5f8" filter="url(#f1)"/><rect x="0" y="0" width="5940.0363732219685" height="990.0060622036614" fill="#e9f8f9"/></g><g transform="translate(-1423.8108866343864 -975.0692749249171) rotate(2 -433.80482443072515 -480.0662438230864 )"><rect x="8" y="8" opacity="0.4" width="5940.0363732219685" height="990.0060622036614" fill="black" filter="url(#f1)"/><rect x="-8" y="-8" opacity="0.4" width="5940.0363732219685" height="990.0060622036614" fill="black" filter="url(#f1)"/><rect x="0" y="0" width="5940.0363732219685" height="990.0060622036614" fill="#87CEEB"/></g><g transform="translate(-834.0188653224116 -829.5786012643711) rotate(16 155.98719688124982 -334.5755701625404 )"><rect x="8" y="8" opacity="0.4" width="5940.0363732219685" height="990.0060622036614" fill="black" filter="url(#f1)"/><rect x="-8" y="-8" opacity="0.4" width="5940.0363732219685" height="990.0060622036614" fill="black" filter="url(#f1)"/><rect x="0" y="0" width="5940.0363732219685" height="990.0060622036614" fill="#FFFFFF"/></g></svg>