<svg class="border shadow-md" viewBox="0 0 1400.08 1400.08" style="width: 1400.08px; height: 1400.08px;" xmlns="http://www.w3.org/2000/svg" preserveAspectRatio="none"><rect class="bg" id="bg" x="0" y="0" width="1400.08" height="1400.08" fill="#ffffff"/><defs><filter id="f1" x="-200%" y="-200%" width="500%" height="500%"><feGaussianBlur stdDeviation="25"/></filter></defs><g transform="translate(-580.0387438900427 -277.7486796013054) rotate(5 409.96731831361865 217.25435150052527 )"><rect x="8" y="8" opacity="0.4" width="5940.0363732219685" height="990.0060622036614" fill="#87CEEB" filter="url(#f1)"/><rect x="-8" y="-8" opacity="0.4" width="5940.0363732219685" height="990.0060622036614" fill="#8dd0ec" filter="url(#f1)"/><rect x="0" y="0" width="5940.0363732219685" height="990.0060622036614" fill="#93d2ed"/></g><g transform="translate(-751.6452298681736 169.30150045085327) rotate(13 238.36083233548777 664.304531552684 )"><rect x="8" y="8" opacity="0.4" width="5940.0363732219685" height="990.0060622036614" fill="#99d4ee" filter="url(#f1)"/><rect x="-8" y="-8" opacity="0.4" width="5940.0363732219685" height="990.0060622036614" fill="#9fd6ef" filter="url(#f1)"/><rect x="0" y="0" width="5940.0363732219685" height="990.0060622036614" fill="#a5d8f0"/></g><g transform="translate(-1170.4617415005596 401.45528374655885) rotate(6 -180.4556792968982 896.4583148483896 )"><rect x="8" y="8" opacity="0.4" width="5940.0363732219685" height="990.0060622036614" fill="#abdaf1" filter="url(#f1)"/><rect x="-8" y="-8" opacity="0.4" width="5940.0363732219685" height="990.0060622036614" fill="#b1dcf2" filter="url(#f1)"/><rect x="0" y="0" width="5940.0363732219685" height="990.0060622036614" fill="#b7def3"/></g><g transform="translate(-1640.5193783673571 310.08533497984524) rotate(11 -650.5133161636958 805.088366081676 )"><rect x="8" y="8" opacity="0.4" width="5940.0363732219685" height="990.0060622036614" fill="#bde0f4" filter="url(#f1)"/><rect x="-8" y="-8" opacity="0.4" width="5940.0363732219685" height="990.0060622036614" fill="#c3e2f5" filter="url(#f1)"/><rect x="0" y="0" width="5940.0363732219685" height="990.0060622036614" fill="#c9e4f6"/></g><g transform="translate(-1941.8729480698685 -62.055331357473506) rotate(12 -951.8668858662071 432.9476997443572 )"><rect x="8" y="8" opacity="0.4" width="5940.0363732219685" height="990.0060622036614" fill="#cfe6f7" filter="url(#f1)"/><rect x="-8" y="-8" opacity="0.4" width="5940.0363732219685" height="990.0060622036614" fill="#d5e8f8" filter="url(#f1)"/><rect x="0" y="0" width="5940.0363732219685" height="990.0060622036614" fill="#0000FF"/></g><g transform="translate(-1933.5157661724238 -540.8379616033535) rotate(11 -943.5097039687624 -45.83493050152282 )"><rect x="8" y="8" opacity="0.4" width="5940.0363732219685" height="990.0060622036614" fill="black" filter="url(#f1)"/><rect x="-8" y="-8" opacity="0.4" width="5940.0363732219685" height="990.0060622036614" fill="black" filter="url(#f1)"/><rect x="0" y="0" width="5940.0363732219685" height="990.0060622036614" fill="#87CEEB"/></g><g transform="translate(-1619.3582509645685 -902.2348419895242) rotate(10 -629.352188760907 -407.2318108876935 )"><rect x="8" y="8" opacity="0.4" width="5940.0363732219685" height="990.0060622036614" fill="black" filter="url(#f1)"/><rect x="-8" y="-8" opacity="0.4" width="5940.0363732219685" height="990.0060622036614" fill="black" filter="url(#f1)"/><rect x="0" y="0" width="5940.0363732219685" height="990.0060622036614" fill="#FFFFFF"/></g><g transform="translate(-1146.3981952839263 -977.144355704364) rotate(5 -156.39213308026478 -482.1413246025333 )"><rect x="8" y="8" opacity="0.4" width="5940.0363732219685" height="990.0060622036614" fill="black" filter="url(#f1)"/><rect x="-8" y="-8" opacity="0.4" width="5940.0363732219685" height="990.0060622036614" fill="black" filter="url(#f1)"/><rect x="0" y="0" width="5940.0363732219685" height="990.0060622036614" fill="#E4AFFF"/></g><g transform="translate(-735.9388655489852 -730.5155087541898) rotate(2 254.0671966546762 -235.51247765235917 )"><rect x="8" y="8" opacity="0.4" width="5940.0363732219685" height="990.0060622036614" fill="black" filter="url(#f1)"/><rect x="-8" y="-8" opacity="0.4" width="5940.0363732219685" height="990.0060622036614" fill="black" filter="url(#f1)"/><rect x="0" y="0" width="5940.0363732219685" height="990.0060622036614" fill="#0000FF"/></g></svg>