<svg class="border shadow-md" viewBox="0 0 1400.08 1400.08" style="width: 1400.08px; height: 1400.08px;" xmlns="http://www.w3.org/2000/svg" preserveAspectRatio="none"><rect class="bg" id="bg" x="0" y="0" width="1400.08" height="1400.08" fill="#ffffff"/><defs><filter id="f1" x="-200%" y="-200%" width="500%" height="500%"><feGaussianBlur stdDeviation="25"/></filter></defs><g transform="translate(-580.0387438900427 -277.7486796013054) rotate(12 409.96731831361865 217.25435150052527 )"><rect x="8" y="8" opacity="0.4" width="5940.0363732219685" height="990.0060622036614" fill="#87CEEB" filter="url(#f1)"/><rect x="-8" y="-8" opacity="0.4" width="5940.0363732219685" height="990.0060622036614" fill="#8dd0ec" filter="url(#f1)"/><rect x="0" y="0" width="5940.0363732219685" height="990.0060622036614" fill="#93d2ed"/></g><g transform="translate(-940.5859978500769 322.3027175822011) rotate(16 49.42006435358451 817.3057486840319 )"><rect x="8" y="8" opacity="0.4" width="5940.0363732219685" height="990.0060622036614" fill="#99d4ee" filter="url(#f1)"/><rect x="-8" y="-8" opacity="0.4" width="5940.0363732219685" height="990.0060622036614" fill="#9fd6ef" filter="url(#f1)"/><rect x="0" y="0" width="5940.0363732219685" height="990.0060622036614" fill="#a5d8f0"/></g><g transform="translate(-1640.5193783673571 310.08533497984524) rotate(1 -650.5133161636958 805.088366081676 )"><rect x="8" y="8" opacity="0.4" width="5940.0363732219685" height="990.0060622036614" fill="#abdaf1" filter="url(#f1)"/><rect x="-8" y="-8" opacity="0.4" width="5940.0363732219685" height="990.0060622036614" fill="#b1dcf2" filter="url(#f1)"/><rect x="0" y="0" width="5940.0363732219685" height="990.0060622036614" fill="#b7def3"/></g><g transform="translate(-1979.9055049246028 -302.1834448060174) rotate(9 -989.8994427209415 192.81958629581328 )"><rect x="8" y="8" opacity="0.4" width="5940.0363732219685" height="990.0060622036614" fill="#bde0f4" filter="url(#f1)"/><rect x="-8" y="-8" opacity="0.4" width="5940.0363732219685" height="990.0060622036614" fill="#c3e2f5" filter="url(#f1)"/><rect x="0" y="0" width="5940.0363732219685" height="990.0060622036614" fill="#c9e4f6"/></g><g transform="translate(-1619.3582509645685 -902.2348419895242) rotate(3 -629.352188760907 -407.2318108876935 )"><rect x="8" y="8" opacity="0.4" width="5940.0363732219685" height="990.0060622036614" fill="#cfe6f7" filter="url(#f1)"/><rect x="-8" y="-8" opacity="0.4" width="5940.0363732219685" height="990.0060622036614" fill="#d5e8f8" filter="url(#f1)"/><rect x="0" y="0" width="5940.0363732219685" height="990.0060622036614" fill="#0000FF"/></g><g transform="translate(-919.4248704472884 -890.0174593871681) rotate(20 70.58119175637296 -395.0144282853374 )"><rect x="8" y="8" opacity="0.4" width="5940.0363732219685" height="990.0060622036614" fill="black" filter="url(#f1)"/><rect x="-8" y="-8" opacity="0.4" width="5940.0363732219685" height="990.0060622036614" fill="black" filter="url(#f1)"/><rect x="0" y="0" width="5940.0363732219685" height="990.0060622036614" fill="#87CEEB"/></g></svg>